<svg width="108" height="21" viewBox="0 0 108 21" xmlns="http://www.w3.org/2000/svg"><path d="M64.014 16.913c.186.279.419.573.698.88.279.307.605.586.977.838.372.251.796.461 1.271.628.475.168.991.251 1.55.251 1.452 0 2.588-.512 3.407-1.536s1.229-2.551 1.229-4.58-.372-3.575-1.117-4.636-1.843-1.592-3.295-1.592c-.54 0-1.033.079-1.48.237-.447.158-.861.372-1.243.642-.382.27-.735.577-1.061.922-.326.344-.638.703-.936 1.075v6.87zm-1.592 3.742v-20.108h1.592v7.764c.633-.801 1.359-1.438 2.178-1.913.819-.475 1.759-.712 2.821-.712.987 0 1.848.186 2.583.559.735.372 1.341.894 1.815 1.564.475.67.829 1.476 1.061 2.416.233.94.349 1.978.349 3.114s-.121 2.174-.363 3.114-.614 1.745-1.117 2.416c-.503.67-1.14 1.192-1.913 1.564-.773.372-1.69.559-2.751.559-.652 0-1.238-.084-1.759-.251-.521-.168-.982-.377-1.382-.628-.4-.251-.74-.512-1.019-.782-.279-.27-.484-.517-.614-.74l-.084 2.067h-1.396zm25.991-1.648c-.819.726-1.657 1.238-2.514 1.536-.856.298-1.759.447-2.709.447-.987 0-1.885-.154-2.695-.461-.81-.307-1.499-.773-2.067-1.396-.568-.624-1.005-1.41-1.313-2.36-.307-.95-.461-2.076-.461-3.379 0-1.173.154-2.234.461-3.184.307-.95.74-1.759 1.299-2.43.559-.67 1.238-1.187 2.039-1.55.801-.363 1.694-.545 2.681-.545 3.686 0 5.53 2.346 5.53 7.038v.977h-10.305c0 .875.102 1.671.307 2.388.205.717.507 1.331.908 1.843.4.512.912.908 1.536 1.187s1.364.419 2.22.419c.838 0 1.597-.126 2.276-.377.68-.251 1.373-.675 2.081-1.271l.726 1.117zm-1.341-6.703c-.019-.763-.093-1.466-.223-2.109-.13-.642-.349-1.192-.656-1.648-.307-.456-.708-.815-1.201-1.075-.493-.261-1.112-.391-1.857-.391-.95 0-1.732.195-2.346.586-.614.391-1.103.866-1.466 1.424-.363.559-.614 1.136-.754 1.732-.14.596-.209 1.089-.209 1.48h8.713zm5.967-4.915v10.808c0 .54.098.917.293 1.131.195.214.535.321 1.019.321.317 0 .619-.042.908-.126.289-.084.563-.182.824-.293l.363 1.173c-.298.149-.666.284-1.103.405-.438.121-.842.182-1.215.182-.875 0-1.536-.191-1.983-.573-.447-.382-.67-1.01-.67-1.885v-11.143h-1.787v-1.033l1.787-.335.279-3.882h1.285v3.882h2.793v1.368h-2.793zm13.368 6.368l-.964-.112c-.326-.037-.759-.056-1.299-.056-1.955 0-3.337.298-4.147.894-.81.596-1.215 1.434-1.215 2.514 0 .819.261 1.476.782 1.969.521.493 1.275.74 2.262.74.652 0 1.257-.163 1.815-.489.559-.326 1.043-.74 1.452-1.243.41-.503.731-1.061.964-1.676.233-.614.349-1.201.349-1.759v-.782zm1.592 6.898h-1.368l-.112-2.932c-.521 1.061-1.192 1.871-2.011 2.43-.819.559-1.834.838-3.044.838-1.303 0-2.346-.358-3.128-1.075s-1.173-1.745-1.173-3.086c0-.503.088-1.019.265-1.55.177-.531.517-1.019 1.019-1.466.503-.447 1.196-.815 2.081-1.103.884-.289 2.034-.433 3.449-.433.447 0 .856.014 1.229.042l1.201.098v-1.592c0-1.229-.312-2.16-.936-2.793-.624-.633-1.531-.95-2.723-.95-.782 0-1.499.158-2.15.475-.652.317-1.285.754-1.899 1.313l-.81-1.033c.633-.652 1.373-1.173 2.22-1.564.847-.391 1.764-.586 2.751-.586.745 0 1.434.093 2.067.279.633.186 1.178.484 1.634.894.456.41.81.926 1.061 1.55.251.624.377 1.382.377 2.276v9.97zm-58.31-20.193h7.95l-6.08 9.479c-.117.231-.234.462-.234.694 0 .231.117.347.351.809l6.08 9.363h-7.95l-5.027-8.901c-.351-.347-.585-.809-.585-1.503 0-.462.117-.809.468-1.503l5.027-8.439zm-42.207 0h5.027c1.871 0 3.157.925 3.508 3.006l3.508 17.339h-7.483l-4.56-20.345zm-7.483 0h7.132v20.345h-7.132v-20.345zm20.11 0h7.015v20.345h-7.015v-20.345zm16.018 0h7.015v20.345h-7.015v-20.345zm-.468 3.468c0-2.659-1.988-3.93-3.975-3.93-1.988 0-3.975 1.156-3.975 3.93s1.988 3.93 3.975 3.93c1.988 0 3.975-.925 3.975-3.93z" fill="#FFF"/></svg>
